<?xml version="1.0" standalone="no"?>
<!DOCTYPE svg PUBLIC "-//W3C//DTD SVG 20010904//EN"
 "http://www.w3.org/TR/2001/REC-SVG-20010904/DTD/svg10.dtd">
<svg version="1.0" xmlns="http://www.w3.org/2000/svg"
 width="512.000000pt" height="512.000000pt" viewBox="0 0 512.000000 512.000000"
 preserveAspectRatio="xMidYMid meet">

<g transform="translate(0.000000,512.000000) scale(0.100000,-0.100000)"
fill="#000000" stroke="none">
<path d="M1100 5109 c-126 -24 -276 -133 -344 -249 -75 -127 -70 -79 -74 -832
l-3 -678 141 0 c154 0 192 -9 244 -58 16 -15 37 -45 47 -67 17 -37 19 -74 19
-512 l0 -473 1430 0 1429 0 3 458 3 457 32 47 c49 69 113 98 220 98 l83 0 0
675 c0 449 -4 692 -11 727 -36 172 -171 323 -354 394 -48 18 -93 19 -1435 21
-762 0 -1405 -3 -1430 -8z"/>
<path d="M475 3195 c-5 -2 -22 -6 -37 -9 -63 -14 -97 -62 -210 -294 -67 -136
-117 -252 -128 -299 -19 -73 -20 -117 -20 -1070 l0 -993 95 0 95 0 0 -253 c0
-183 3 -256 12 -265 17 -17 289 -17 306 0 9 9 12 82 12 265 l0 253 50 0 49 0
3 598 3 597 27 58 c20 41 59 90 138 171 l110 113 0 525 c0 524 0 525 -22 553
-38 49 -69 55 -280 54 -106 0 -197 -2 -203 -4z"/>
<path d="M4214 3186 c-17 -7 -40 -26 -52 -41 -22 -28 -22 -29 -22 -553 l0
-525 110 -113 c79 -81 118 -130 138 -171 l27 -58 3 -597 2 -598 50 0 50 0 0
-253 c0 -183 3 -256 12 -265 17 -17 289 -17 306 0 9 9 12 82 12 265 l0 253 95
0 95 0 0 993 c0 957 -1 997 -20 1071 -23 90 -204 472 -250 529 -57 69 -70 72
-310 74 -166 3 -222 0 -246 -11z m766 -751 c0 -63 -4 -105 -10 -105 -6 0 -10
-40 -10 -100 0 -118 6 -113 -135 -108 -76 3 -90 6 -93 21 -3 15 6 17 92 17
l96 0 0 85 0 85 -135 0 -135 0 0 -120 0 -120 -55 0 -55 0 0 120 0 120 -130 0
-130 0 0 -85 0 -85 96 0 c86 0 95 -2 92 -17 -3 -16 -16 -18 -113 -18 l-110 0
-3 103 c-2 82 -6 102 -17 102 -12 0 -15 19 -15 105 l0 105 385 0 385 0 0 -105z"/>
<path d="M1057 1997 c-149 -166 -148 -165 -176 -240 -20 -54 -21 -76 -21 -335
0 -257 2 -279 19 -306 11 -16 30 -35 43 -42 18 -11 341 -13 1621 -14 1455 0
1601 1 1626 16 55 32 56 38 59 324 5 370 3 378 -170 604 l-103 136 -1385 0
-1385 0 -128 -143z"/>
</g>
</svg>
